<svg width="22" height="16" viewBox="0 0 22 16" fill="none" xmlns="http://www.w3.org/2000/svg">
<g id="flag">
<mask id="mask0_8819_18435" style="mask-type:luminance" maskUnits="userSpaceOnUse" x="0" y="0" width="22" height="16">
<rect id="mask" y="0.663086" width="22" height="14.6667" fill="white"/>
</mask>
<g mask="url(#mask0_8819_18435)">
<g id="contents">
<path id="bottom" fill-rule="evenodd" clip-rule="evenodd" d="M15.4062 0.663086H22.0062V15.3298H15.4062V0.663086Z" fill="#67BD38"/>
<path id="middle" fill-rule="evenodd" clip-rule="evenodd" d="M6.59375 0.663086H15.3938V15.3298H6.59375V0.663086Z" fill="#D51700"/>
<path id="middle_2" fill-rule="evenodd" clip-rule="evenodd" d="M0 0.663086H6.6V15.3298H0V0.663086Z" fill="#272727"/>
<g id="mark">
<path id="Combined Shape" fill-rule="evenodd" clip-rule="evenodd" d="M8.47964 5.53613L8.71751 5.66884C8.32079 6.26238 8.0544 6.80622 7.91679 7.30053C7.97362 7.34747 8.00962 7.38894 8.04638 7.44554C8.15393 7.61113 8.24439 7.77187 8.3177 7.92784L8.00155 8.04749C7.95251 7.94315 7.89483 7.83591 7.82849 7.72578C7.79669 7.96573 7.79906 8.19251 7.83537 8.40613C7.89143 8.41154 7.93903 8.42226 7.99388 8.44001C8.19602 8.5054 8.38155 8.57686 8.5505 8.65445L8.39483 8.92674C8.25205 8.86116 8.09535 8.7999 7.92473 8.74303L7.92763 8.75089C8.0744 9.14513 8.2989 9.50788 8.60176 9.83931C8.64848 9.8305 8.69218 9.82715 8.74315 9.82715C8.95825 9.82715 9.16009 9.83788 9.3487 9.85944L9.3072 10.1626C9.17943 10.148 9.04432 10.1388 8.9019 10.1348C9.17481 10.3777 9.49524 10.6017 9.86348 10.8068L9.71838 11.0242C9.26154 10.7697 8.87285 10.486 8.55278 10.173C8.51081 10.1876 8.4596 10.2069 8.39421 10.2323L8.36785 10.2425C8.64718 10.5029 8.97747 10.7424 9.35906 10.9611L9.21095 11.1768C8.76992 10.9241 8.39247 10.6433 8.07902 10.3346C7.93049 10.3682 7.80495 10.3673 7.6582 10.3291L7.75001 10.0352C7.77121 10.0408 7.79198 10.0449 7.8128 10.0477C7.52276 9.70415 7.30414 9.32961 7.15745 8.92423C7.13139 8.85223 7.10909 8.77891 7.09052 8.70428C6.97682 8.68494 6.88085 8.64696 6.78125 8.5818L6.98057 8.33361C6.99767 8.34479 7.01487 8.35467 7.03261 8.36333C6.99701 7.98864 7.04649 7.58413 7.18032 7.14988C7.0972 7.06462 7.0463 6.9762 7.01491 6.8613L7.30603 6.79449C7.46339 6.39869 7.68581 5.9799 7.97281 5.53818L8.21249 5.66815C7.8997 6.14957 7.66781 6.59936 7.51613 7.01758C7.55933 7.05249 7.61236 7.08991 7.67755 7.13282C7.82981 6.64 8.09758 6.10773 8.47964 5.53613ZM7.59286 7.45693C7.56147 7.43516 7.52356 7.4099 7.47717 7.37951C7.4552 7.36512 7.43418 7.3511 7.41407 7.33738C7.30751 7.72648 7.27598 8.08599 7.31883 8.41598C7.3701 8.41635 7.4282 8.41439 7.49529 8.41063L7.55372 8.40748C7.50837 8.11047 7.52156 7.79361 7.59286 7.45693ZM7.51009 8.71465C7.55259 8.71227 7.58952 8.71038 7.62196 8.70905C7.63462 8.75076 7.64855 8.79203 7.66376 8.83287C7.811 9.2284 8.03054 9.59367 8.32185 9.92855L8.26332 9.95112C8.21371 9.9704 8.16913 9.9868 8.12842 10.0004C7.80933 9.64971 7.5741 9.26442 7.42208 8.84431C7.40728 8.80341 7.39382 8.76197 7.38172 8.72C7.42201 8.71903 7.46467 8.7172 7.51009 8.71465Z" fill="#F7FCFF"/>
<path id="Combined Shape_2" fill-rule="evenodd" clip-rule="evenodd" d="M13.2938 5.53613L13.0559 5.66884C13.4527 6.26238 13.719 6.80622 13.8566 7.30053C13.7998 7.34747 13.7638 7.38894 13.7271 7.44554C13.6195 7.61113 13.529 7.77187 13.4557 7.92784L13.7719 8.04749C13.8209 7.94315 13.8786 7.83591 13.9449 7.72578C13.9767 7.96573 13.9744 8.19251 13.9381 8.40613C13.882 8.41154 13.8344 8.42226 13.7796 8.44001C13.5774 8.5054 13.3919 8.57686 13.2229 8.65445L13.3786 8.92674C13.5214 8.86116 13.6781 8.7999 13.8487 8.74303L13.8458 8.75089C13.699 9.14513 13.4745 9.50788 13.1717 9.83931C13.125 9.8305 13.0813 9.82715 13.0303 9.82715C12.8152 9.82715 12.6133 9.83788 12.4247 9.85944L12.4662 10.1626C12.594 10.148 12.7291 10.1388 12.8715 10.1348C12.5986 10.3777 12.2782 10.6017 11.91 10.8068L12.0551 11.0242C12.5119 10.7697 12.9006 10.486 13.2207 10.173C13.2626 10.1876 13.3138 10.2069 13.3792 10.2323L13.4056 10.2425C13.1263 10.5029 12.796 10.7424 12.4144 10.9611L12.5625 11.1768C13.0035 10.9241 13.381 10.6433 13.6944 10.3346C13.8429 10.3682 13.9685 10.3673 14.1152 10.3291L14.0234 10.0352C14.0022 10.0408 13.9815 10.0449 13.9606 10.0477C14.2507 9.70415 14.4693 9.32961 14.616 8.92423C14.642 8.85223 14.6644 8.77891 14.6829 8.70428C14.7966 8.68494 14.8926 8.64696 14.9922 8.5818L14.7929 8.33361C14.7758 8.34479 14.7586 8.35467 14.7408 8.36333C14.7764 7.98864 14.7269 7.58413 14.5931 7.14988C14.6762 7.06462 14.7271 6.9762 14.7585 6.8613L14.4674 6.79449C14.31 6.39869 14.0876 5.9799 13.8006 5.53818L13.561 5.66815C13.8737 6.14957 14.1056 6.59936 14.2573 7.01758C14.2141 7.05249 14.1611 7.08991 14.0959 7.13282C13.9436 6.64 13.6759 6.10773 13.2938 5.53613ZM14.1806 7.45693C14.212 7.43516 14.2499 7.4099 14.2963 7.37951C14.3182 7.36512 14.3393 7.3511 14.3594 7.33738C14.4659 7.72648 14.4975 8.08599 14.4546 8.41598C14.4033 8.41635 14.3452 8.41439 14.2781 8.41063L14.2197 8.40748C14.2651 8.11047 14.2519 7.79361 14.1806 7.45693ZM14.2633 8.71465C14.2208 8.71227 14.1839 8.71038 14.1515 8.70905C14.1388 8.75076 14.1249 8.79203 14.1097 8.83287C13.9624 9.2284 13.7429 9.59367 13.4516 9.92855L13.5101 9.95112C13.5597 9.9704 13.6043 9.9868 13.645 10.0004C13.9641 9.64971 14.1993 9.26442 14.3514 8.84431C14.3662 8.80341 14.3796 8.76197 14.3917 8.72C14.3514 8.71903 14.3088 8.7172 14.2633 8.71465Z" fill="#F7FCFF"/>
<path id="Path 403" fill-rule="evenodd" clip-rule="evenodd" d="M9.69716 10.6006L8.92969 11.2756C8.92969 11.2756 9.59151 11.6359 10.8388 11.6359C12.0862 11.6359 12.8125 11.2756 12.8125 11.2756L12.2291 10.6006C12.2291 10.6006 11.4341 10.8744 10.8711 10.8744C10.308 10.8744 9.69716 10.6006 9.69716 10.6006Z" fill="#F7FCFF"/>
<path id="Path 404" d="M9.71094 11.0322C9.71094 11.0322 10.3607 11.1685 10.8588 11.1685C11.3569 11.1685 12.0067 11.0322 12.0067 11.0322" stroke="#C00001" stroke-width="0.458333"/>
<path id="Combined Shape_3" fill-rule="evenodd" clip-rule="evenodd" d="M11.5096 6.44571C11.5096 6.7129 11.235 6.92951 10.8964 6.92951C10.5577 6.92951 10.2832 6.7129 10.2832 6.44571C10.2832 6.17852 10.5577 5.96191 10.8964 5.96191C11.235 5.96191 11.5096 6.17852 11.5096 6.44571ZM10.0193 6.08496H9.6848V7.05454H9.39258V7.2197H9.6848V8.96487C9.64514 9.24383 9.55347 9.40156 9.42499 9.45636L8.74219 9.74757H12.8516L12.5563 9.48525C12.2969 9.25487 12.1729 9.07769 12.1729 8.97456V7.2197H12.2912V7.05454H12.1729V6.08496H11.8385V7.05454H11.7314L11.5159 6.93066H10.2375L10.0557 7.05454H10.0193V6.08496ZM10.0193 8.98407V7.2197H11.8385V8.97456C11.8385 9.11619 11.9138 9.26987 12.0609 9.44201H9.8813C9.94863 9.32156 9.99364 9.1714 10.0193 8.98407ZM10.9512 8.00098H10.2266V9.27412H11.6759L10.9512 8.00098Z" fill="#F7FCFF"/>
<path id="Path 407" fill-rule="evenodd" clip-rule="evenodd" d="M11.7031 4.42285L11.7044 4.4247L11.7041 4.424L11.7031 4.42285ZM12.7617 4.75293L12.7624 4.75861L12.7619 4.75447L12.7617 4.75293ZM12.9707 4.7772L12.9718 4.77441L12.9713 4.77578L12.9707 4.7772ZM12.1349 5.15148L12.1388 5.15145L12.1369 5.15167L12.1349 5.15148Z" fill="#F7FCFF"/>
<path id="Combined Shape_4" fill-rule="evenodd" clip-rule="evenodd" d="M8.82644 7.18066L8.68945 7.26829L8.8299 7.45154C8.70888 7.49017 8.51453 7.58794 8.51453 7.81753C8.51453 8.1509 8.38281 8.42401 8.38281 8.42401L8.77622 8.64859C8.77622 8.64859 8.81725 8.25978 8.92433 8.03865C8.97798 7.92787 9.06148 7.87258 9.13146 7.845L9.74377 8.64392L9.88076 8.55629L8.82644 7.18066Z" fill="#F7FCFF"/>
<path id="Combined Shape_5" fill-rule="evenodd" clip-rule="evenodd" d="M13.0095 7.18066L13.1465 7.26829L13.006 7.45154C13.1271 7.49017 13.3214 7.58794 13.3214 7.81753C13.3214 8.1509 13.4531 8.42401 13.4531 8.42401L13.0597 8.64859C13.0597 8.64859 13.0187 8.25978 12.9116 8.03865C12.858 7.92787 12.7745 7.87258 12.7045 7.845L12.0922 8.64392L11.9552 8.55629L13.0095 7.18066Z" fill="#F7FCFF"/>
</g>
</g>
</g>
</g>
</svg>
