<svg width="22" height="16" viewBox="0 0 22 16" fill="none" xmlns="http://www.w3.org/2000/svg">
<g id="flag">
<path id="bottom" fill-rule="evenodd" clip-rule="evenodd" d="M11 0.668945H22V15.3356H11V0.668945Z" fill="#F7FCFF"/>
<path id="left" fill-rule="evenodd" clip-rule="evenodd" d="M0 0.668945H11V15.3356H0V0.668945Z" fill="#36A400"/>
<path id="Union" fill-rule="evenodd" clip-rule="evenodd" d="M12.8012 4.48926C13.7907 4.48926 14.7122 4.73073 15.4852 5.14659C14.4113 4.02609 12.8123 3.31543 11.0266 3.31543C7.7931 3.31543 5.17188 5.64541 5.17188 8.51959C5.17188 11.3938 7.7931 13.7237 11.0266 13.7237C12.6388 13.7237 14.0989 13.1444 15.1577 12.2072C14.4572 12.5233 13.6544 12.7029 12.8012 12.7029C10.0708 12.7029 7.85742 10.8642 7.85742 8.59608C7.85742 6.32794 10.0708 4.48926 12.8012 4.48926ZM14.7374 6.06347L13.3155 7.49581L11.2734 6.99566L12.4056 8.56974L11.2734 10.2454L13.4156 9.55989L14.5866 11.1848V9.29888L16.5003 8.56974L14.5866 7.96042L14.7374 6.06347Z" fill="#FF0000"/>
</g>
</svg>
