<svg width="22" height="16" viewBox="0 0 22 16" fill="none" xmlns="http://www.w3.org/2000/svg">
<g id="flag">
<mask id="mask0_8819_34046" style="mask-type:luminance" maskUnits="userSpaceOnUse" x="0" y="0" width="22" height="16">
<rect id="mask" y="0.674805" width="22" height="14.6667" fill="white"/>
</mask>
<g mask="url(#mask0_8819_34046)">
<g id="contents">
<path id="middle" fill-rule="evenodd" clip-rule="evenodd" d="M5.5 0.674805H16.5V15.3415H5.5V0.674805Z" fill="#FFD018"/>
<path id="left" fill-rule="evenodd" clip-rule="evenodd" d="M0 0.674805H5.5V15.3415H0V0.674805Z" fill="#2E42A5"/>
<path id="right" fill-rule="evenodd" clip-rule="evenodd" d="M16.5 0.674805H22V15.3415H16.5V0.674805Z" fill="#E31D1C"/>
<g id="mark">
<path id="bg" fill-rule="evenodd" clip-rule="evenodd" d="M11.2176 12.5501C11.3688 12.5108 11.4986 12.2776 11.4986 12.2776C11.4986 12.2776 11.5978 12.3466 11.7551 12.4167C11.9124 12.4869 12.076 12.2776 12.076 12.2776C12.076 12.2776 12.2994 12.2776 12.3974 12.0433C12.4954 11.809 12.2019 11.7086 12.2019 11.7086C12.2019 11.7086 12.545 11.3882 13.1243 11.3882H13.1243C13.7036 11.3882 14.1545 11.3882 14.5325 11.2456C14.9106 11.1029 15.2779 10.8577 15.4153 10.3484C15.5527 9.83917 15.1177 9.51843 15.1177 9.51843C15.1177 9.51843 15.2141 9.54553 15.4153 9.39922C15.6165 9.2529 15.2921 8.78213 15.1177 8.78213C14.9434 8.78213 14.9226 8.86924 14.9226 8.86924C14.9226 8.86924 14.8148 8.78614 14.6672 8.50355C14.5196 8.22096 14.8148 7.97289 14.8148 7.97289C14.8148 7.97289 14.9766 8.05529 15.1177 7.91934C15.2589 7.7834 15.0444 7.5751 15.0444 7.5751C15.0444 7.5751 15.7237 7.36959 15.6255 6.59712C15.5273 5.82465 14.6316 5.86859 14.6316 5.86859C14.6316 5.86859 14.6587 5.74015 14.5325 5.66695C14.4063 5.59376 14.3128 5.74015 14.3128 5.74015C14.2138 5.53641 14.5042 5.25768 14.7366 5.03463C14.8086 4.96551 14.875 4.90174 14.9226 4.84719C15.1236 4.61664 14.9974 4.33181 14.2629 4.02092C13.5283 3.71003 13.1273 4.12786 13.0684 4.27591C13.0095 4.42397 13.2374 4.51559 13.2374 4.51559C13.0515 4.6606 12.692 4.71597 12.447 4.61578C12.2019 4.51559 12.3105 4.2109 12.3612 4.12786C12.3667 4.11877 12.3741 4.10776 12.3826 4.09504C12.4519 3.99154 12.5967 3.77515 12.447 3.56472C12.2788 3.32843 11.9877 3.32843 11.7551 3.46261C11.5568 3.57705 11.2751 3.63792 11.1965 3.65336C11.1179 3.63792 10.8363 3.57705 10.6379 3.46261C10.4054 3.32843 10.1142 3.32843 9.94607 3.56472C9.79631 3.77515 9.94115 3.99154 10.0104 4.09504C10.0189 4.10776 10.0263 4.11877 10.0319 4.12786C10.0825 4.2109 10.1911 4.51559 9.94607 4.61578C9.70101 4.71597 9.34149 4.6606 9.15561 4.51559C9.15561 4.51559 9.38352 4.42397 9.32464 4.27591C9.26576 4.12786 8.86474 3.71003 8.13019 4.02092C7.39564 4.33181 7.26941 4.61664 7.47046 4.84719C7.51802 4.90174 7.58447 4.96551 7.65648 5.03463C7.88887 5.25768 8.17926 5.53641 8.08023 5.74015C8.08023 5.74015 7.98671 5.59376 7.86051 5.66695C7.73431 5.74015 7.76147 5.86859 7.76147 5.86859C7.76147 5.86859 6.86573 5.82465 6.76752 6.59712C6.66931 7.36959 7.34859 7.5751 7.34859 7.5751C7.34859 7.5751 7.13418 7.7834 7.2753 7.91934C7.41642 8.05529 7.5782 7.97289 7.5782 7.97289C7.5782 7.97289 7.87343 8.22096 7.72581 8.50355C7.5782 8.78614 7.47046 8.86924 7.47046 8.86924C7.47046 8.86924 7.44966 8.78213 7.2753 8.78213C7.10094 8.78213 6.77655 9.2529 6.97776 9.39922C7.17898 9.54553 7.2753 9.51843 7.2753 9.51843C7.2753 9.51843 6.84034 9.83917 6.97776 10.3484C7.11519 10.8577 7.48249 11.1029 7.86051 11.2456C8.23853 11.3882 8.6894 11.3882 9.26872 11.3882H9.26873C9.84805 11.3882 10.1911 11.7086 10.1911 11.7086C10.1911 11.7086 9.89763 11.809 9.99561 12.0433C10.0936 12.2776 10.317 12.2776 10.317 12.2776C10.317 12.2776 10.4806 12.4869 10.6379 12.4167C10.7952 12.3466 10.8945 12.2776 10.8945 12.2776C10.8945 12.2776 11.0242 12.5108 11.1754 12.5501V12.5556C11.1825 12.5556 11.1895 12.5551 11.1965 12.5542C11.2035 12.5551 11.2105 12.5556 11.2176 12.5556V12.5501Z" fill="#BF9937"/>
<path id="txt" d="M8.32031 10.4551L8.39257 10.2998C9.22286 10.6162 10.1677 10.7746 11.2277 10.7746C12.2872 10.7746 13.2067 10.6163 13.9867 10.3005L14.0627 10.4544C13.2574 10.7804 12.3122 10.9431 11.2277 10.9431C10.1438 10.9431 9.17448 10.7805 8.32031 10.4551Z" fill="#805440"/>
<g id="masked">
<path id="mask_2" fill-rule="evenodd" clip-rule="evenodd" d="M8.60938 5.09668H11.1654H11.2337H13.7898V9.39268C13.7898 9.39268 13.7888 9.77185 13.3379 9.93763C12.8869 10.1034 12.3564 10.0441 12.3564 10.0441C12.3564 10.0441 11.8489 9.94707 11.5809 10.0441C11.4195 10.1025 11.3019 10.1319 11.2337 10.1461V10.1581C11.2337 10.1581 11.2222 10.1568 11.1996 10.1527C11.177 10.1568 11.1654 10.1581 11.1654 10.1581V10.1461C11.0973 10.1319 10.9796 10.1025 10.8182 10.0441C10.5503 9.94707 10.0427 10.0441 10.0427 10.0441C10.0427 10.0441 9.51225 10.1034 9.06127 9.93763C8.61028 9.77185 8.60938 9.39268 8.60938 9.39268V5.09668Z" fill="#BF9937"/>
<mask id="mask1_8819_34046" style="mask-type:luminance" maskUnits="userSpaceOnUse" x="8" y="5" width="6" height="6">
<path id="mask_3" fill-rule="evenodd" clip-rule="evenodd" d="M8.60938 5.09668H11.1654H11.2337H13.7898V9.39268C13.7898 9.39268 13.7888 9.77185 13.3379 9.93763C12.8869 10.1034 12.3564 10.0441 12.3564 10.0441C12.3564 10.0441 11.8489 9.94707 11.5809 10.0441C11.4195 10.1025 11.3019 10.1319 11.2337 10.1461V10.1581C11.2337 10.1581 11.2222 10.1568 11.1996 10.1527C11.177 10.1568 11.1654 10.1581 11.1654 10.1581V10.1461C11.0973 10.1319 10.9796 10.1025 10.8182 10.0441C10.5503 9.94707 10.0427 10.0441 10.0427 10.0441C10.0427 10.0441 9.51225 10.1034 9.06127 9.93763C8.61028 9.77185 8.60938 9.39268 8.60938 9.39268V5.09668Z" fill="white"/>
</mask>
<g mask="url(#mask1_8819_34046)">
<g id="squares">
<rect id="Rectangle 74" x="8.51562" y="5.04004" width="2.51367" height="2.38333" fill="#D00F3A"/>
<path id="Rectangle 74_2" fill-rule="evenodd" clip-rule="evenodd" d="M11.3125 5.04004H13.9193V7.42337H11.3125V5.04004Z" fill="#FEDF00"/>
<path id="Rectangle 74_3" fill-rule="evenodd" clip-rule="evenodd" d="M11.3125 7.68652H13.8262V10.1581H11.3125V7.68652Z" fill="#FEDF00"/>
<rect id="Rectangle 74_4" x="8.51562" y="7.68652" width="2.51367" height="2.4716" fill="#FEDF00"/>
<path id="Path 306" fill-rule="evenodd" clip-rule="evenodd" d="M13.1677 8.80155C13.1677 8.80155 13.2845 8.6962 13.2845 8.44748C13.2845 8.19875 13.3829 8.03421 13.1677 8.03421C12.9524 8.03421 12.6601 8.03421 12.4543 8.03421C12.2485 8.03421 12.3542 8.14479 12.1472 8.03421C11.9402 7.92364 11.7734 7.95883 11.7734 8.03421C11.7734 8.1096 11.9823 8.07642 11.9823 8.22956C11.9823 8.38271 12.0613 8.24954 12.0613 8.52555C12.0613 8.80155 12.105 8.75521 12.1261 8.75521C12.1472 8.75521 12.1472 8.70536 12.1472 8.6328C12.1472 8.56024 12.1367 8.26757 12.1941 8.35752C12.2515 8.44748 12.2799 8.40499 12.3082 8.50722C12.3366 8.60945 12.4128 8.70888 12.3605 8.75521C12.3082 8.80155 12.2027 8.84135 12.2816 8.84135C12.3605 8.84135 12.4752 8.72364 12.4179 8.52555C12.3605 8.32745 12.4891 8.50722 12.4891 8.50722C12.4891 8.50722 12.7931 8.56718 12.8126 8.48489C12.8322 8.40261 12.8601 8.56359 12.9424 8.56359C13.0248 8.56359 12.8629 8.72924 12.7949 8.75521C12.7269 8.78119 12.7949 8.80155 12.7949 8.80155C12.7949 8.80155 12.8584 8.84789 12.9004 8.80155C12.9424 8.75521 13.0928 8.60362 13.0928 8.52555C13.0928 8.44748 13.1893 8.49438 13.1893 8.56359C13.1893 8.6328 13.0998 8.88115 13.1337 8.84135C13.1677 8.80155 13.1677 8.80155 13.1677 8.80155Z" fill="#D00F3A"/>
<path id="Path 306_2" fill-rule="evenodd" clip-rule="evenodd" d="M13.1677 9.7703C13.1677 9.7703 13.2845 9.66495 13.2845 9.41623C13.2845 9.1675 13.3829 9.00296 13.1677 9.00296C12.9524 9.00296 12.6601 9.00296 12.4543 9.00296C12.2485 9.00296 12.3542 9.11354 12.1472 9.00296C11.9402 8.89239 11.7734 8.92758 11.7734 9.00296C11.7734 9.07835 11.9823 9.04517 11.9823 9.19831C11.9823 9.35146 12.0613 9.21829 12.0613 9.4943C12.0613 9.7703 12.105 9.72396 12.1261 9.72396C12.1472 9.72396 12.1472 9.67411 12.1472 9.60155C12.1472 9.52899 12.1367 9.23632 12.1941 9.32627C12.2515 9.41623 12.2799 9.37374 12.3082 9.47597C12.3366 9.5782 12.4128 9.67763 12.3605 9.72396C12.3082 9.7703 12.2027 9.8101 12.2816 9.8101C12.3605 9.8101 12.4752 9.69239 12.4179 9.4943C12.3605 9.2962 12.4891 9.47597 12.4891 9.47597C12.4891 9.47597 12.7931 9.53593 12.8126 9.45364C12.8322 9.37136 12.8601 9.53234 12.9424 9.53234C13.0248 9.53234 12.8629 9.69799 12.7949 9.72396C12.7269 9.74994 12.7949 9.7703 12.7949 9.7703C12.7949 9.7703 12.8584 9.81664 12.9004 9.7703C12.9424 9.72396 13.0928 9.57237 13.0928 9.4943C13.0928 9.41623 13.1893 9.46313 13.1893 9.53234C13.1893 9.60155 13.0998 9.8499 13.1337 9.8101C13.1677 9.7703 13.1677 9.7703 13.1677 9.7703Z" fill="#D00F3A"/>
<path id="Combined Shape" fill-rule="evenodd" clip-rule="evenodd" d="M9.77955 6.96929C9.77955 7.07017 9.72184 7.14721 9.59028 7.2652L9.53769 7.31213C9.51859 7.32935 9.50399 7.34304 9.49122 7.35586C9.37882 7.46868 9.18223 7.37142 9.13189 7.2619C9.12383 7.24437 9.08436 7.18141 9.02022 7.08281L9.01669 7.07739L8.97885 7.01944L8.94444 6.96685C8.91923 6.92829 8.90601 6.90784 8.89942 6.89706C8.89487 6.88962 8.86886 6.89827 8.82322 6.95004C8.80583 6.96977 8.84149 7.03724 8.95503 7.14519L8.89067 7.20894C8.73266 7.07198 8.65625 6.98326 8.65625 6.92174C8.65625 6.81907 8.74908 6.76396 8.92207 6.76396C9.03088 6.76396 9.08896 6.83208 9.17607 7.0035L9.19828 7.04743C9.24123 7.13209 9.26879 7.17822 9.30225 7.21579C9.34199 7.26042 9.36582 7.25832 9.40685 7.21232C9.44724 7.16704 9.48462 7.09644 9.54071 6.96928C9.54663 6.95586 9.55181 6.94453 9.55614 6.93505C9.56798 6.90913 9.57349 6.89709 9.57042 6.89423C9.56776 6.89175 9.55864 6.89619 9.5416 6.90449C9.53563 6.9074 9.52867 6.91079 9.52068 6.91452L9.47723 6.93481L9.08257 6.09195L9.83008 5.28521V6.96507L9.78147 6.926C9.78029 6.9375 9.77955 6.95204 9.77955 6.96929ZM9.83327 6.96763L9.83008 6.9702V6.96507L9.83327 6.96763ZM9.83646 6.96507V6.9702L9.83327 6.96763L9.83646 6.96507ZM9.83646 5.28521L10.584 6.09195L10.1893 6.93481L10.1459 6.91452C10.1151 6.90016 10.0997 6.89087 10.0961 6.89423C10.0919 6.89813 10.1037 6.91917 10.1258 6.96928C10.1819 7.09644 10.2193 7.16704 10.2597 7.21232C10.3007 7.25832 10.3245 7.26042 10.3643 7.21579C10.3978 7.17822 10.4253 7.13209 10.4683 7.04743L10.4905 7.0035C10.5776 6.83208 10.6357 6.76396 10.7445 6.76396C10.9175 6.76396 11.0103 6.81907 11.0103 6.92174C11.0103 6.98326 10.9339 7.07198 10.7759 7.20894L10.7115 7.14519C10.8251 7.03724 10.8607 6.96977 10.8433 6.95004C10.7977 6.89827 10.7717 6.88962 10.7671 6.89706C10.7605 6.90784 10.7473 6.92829 10.7221 6.96685L10.6877 7.01944L10.6498 7.07739L10.6463 7.08281C10.5822 7.18141 10.5427 7.24437 10.5346 7.2619C10.4843 7.37142 10.2877 7.46868 10.1753 7.35586C10.1625 7.34304 10.148 7.32935 10.1288 7.31213L10.0763 7.2652C9.9447 7.14721 9.88699 7.07017 9.88699 6.96929C9.88699 6.95204 9.88625 6.9375 9.88507 6.926L9.83646 6.96507V5.28521ZM9.83646 5.28521L9.83327 5.28177L9.83646 5.27832V5.28521ZM9.83327 5.28177L9.83008 5.28521V5.27832L9.83327 5.28177ZM9.78711 6.89757L9.78849 6.89551L9.78806 6.89626L9.78711 6.89757Z" fill="white"/>
<path id="Combined Shape_2" fill-rule="evenodd" clip-rule="evenodd" d="M9.82227 6.81687V5.45605L10.4695 6.10687L10.137 6.81687C10.0145 6.77895 9.9716 6.85931 10.0347 7.00243C10.0724 7.08772 10.1021 7.14914 10.131 7.19659C10.0208 7.09725 9.97488 7.03513 9.97488 6.96839C9.97488 6.91439 9.96924 6.87726 9.95451 6.85284C9.94758 6.84134 9.88944 6.83027 9.85212 6.82316C9.8376 6.8204 9.82624 6.81823 9.82227 6.81687ZM9.51995 6.81773L9.1875 6.10772L9.819 5.46191V6.82273C9.81488 6.82414 9.80415 6.82599 9.79076 6.8283C9.758 6.83396 9.70932 6.84236 9.70248 6.8537C9.68775 6.87811 9.68211 6.91525 9.68211 6.96925C9.68211 7.03599 9.63617 7.09811 9.52595 7.19745C9.55493 7.15 9.58464 7.08858 9.62226 7.00329C9.68539 6.86017 9.64248 6.7798 9.51995 6.81773Z" fill="#FEDF00"/>
</g>
<path id="red" fill-rule="evenodd" clip-rule="evenodd" d="M9.07617 7.69238H8.79688V10.164H9.07617V7.69238ZM9.63477 7.69238H9.35547V10.164H9.63477V7.69238ZM9.91406 7.69238H10.1934V10.164H9.91406V7.69238ZM10.752 7.69238H10.4727V10.164H10.752V7.69238Z" fill="#D00F3A"/>
<path id="red_2" fill-rule="evenodd" clip-rule="evenodd" d="M11.9668 5.04004H11.6875V7.51164H11.9668V5.04004ZM12.5254 5.04004H12.2461V7.51164H12.5254V5.04004ZM12.8047 5.04004H13.084V7.51164H12.8047V5.04004ZM13.6426 5.04004H13.3633V7.51164H13.6426V5.04004Z" fill="#D00F3A"/>
</g>
</g>
</g>
</g>
</g>
</g>
</svg>
