<svg width="22" height="16" viewBox="0 0 22 16" fill="none" xmlns="http://www.w3.org/2000/svg">
<g id="flag">
<mask id="mask0_8819_69473" style="mask-type:luminance" maskUnits="userSpaceOnUse" x="0" y="0" width="22" height="16">
<rect id="mask" y="0.664062" width="22" height="14.6681" fill="white"/>
</mask>
<g mask="url(#mask0_8819_69473)">
<g id="contents">
<path id="background" fill-rule="evenodd" clip-rule="evenodd" d="M0 0.664062V15.3322H22V0.664062H0Z" fill="#1D1D1D"/>
<mask id="mask1_8819_69473" style="mask-type:luminance" maskUnits="userSpaceOnUse" x="0" y="0" width="22" height="16">
<path id="background_2" fill-rule="evenodd" clip-rule="evenodd" d="M0 0.664062V15.3322H22V0.664062H0Z" fill="white"/>
</mask>
<g mask="url(#mask1_8819_69473)">
<path id="top" fill-rule="evenodd" clip-rule="evenodd" d="M0 0.664062V7.99674H22V0.664062H0Z" fill="#F50100"/>
<g id="mark">
<g id="Combined shape 1566" filter="url(#filter0_d_8819_69473)">
<path fill-rule="evenodd" clip-rule="evenodd" d="M10.6883 8.84978C11.2213 8.26426 11.3883 7.50736 11.3883 7.03504C11.3883 4.51823 7.85592 3.12598 7.85592 3.12598C10.2844 3.12598 12.9893 4.87616 12.9893 7.03504C12.9893 7.94916 12.6363 8.79733 12.045 9.47152C13.1272 9.95146 14.0432 10.326 14.0432 10.326C14.383 10.5241 14.478 11.0524 14.2552 11.3546C14.0323 11.6567 13.576 11.741 13.2363 11.5431C13.2363 11.5431 12.3672 11.0861 11.8376 10.7775C11.5949 10.636 11.3143 10.4827 11.0156 10.3257C10.3207 10.7415 9.48756 10.9851 8.59191 10.9851C8.59191 10.9851 5.36266 10.6335 5.45507 9.1614C5.45507 9.1614 6.23684 9.69302 8.53661 9.69302C8.90259 9.69302 9.22431 9.64745 9.50657 9.56737C8.51047 9.08416 7.6657 8.70115 7.6657 8.70115C7.32566 8.50309 6.44143 7.49888 6.66427 7.19663C6.8872 6.89453 8.23494 7.23603 8.57471 7.43402C8.57471 7.43402 9.0473 8.011 9.71424 8.36375C10.0089 8.51959 10.3416 8.68447 10.6883 8.84978ZM9.056 6.66135L8.36174 7.07251L8.58358 6.36829L8.07392 5.91843L8.76403 5.89411L9.056 5.19774L9.34797 5.89411H10.0369L9.52842 6.36829L9.78308 7.03094L9.056 6.66135Z" fill="#FCFF01"/>
<path fill-rule="evenodd" clip-rule="evenodd" d="M10.6883 8.84978C11.2213 8.26426 11.3883 7.50736 11.3883 7.03504C11.3883 4.51823 7.85592 3.12598 7.85592 3.12598C10.2844 3.12598 12.9893 4.87616 12.9893 7.03504C12.9893 7.94916 12.6363 8.79733 12.045 9.47152C13.1272 9.95146 14.0432 10.326 14.0432 10.326C14.383 10.5241 14.478 11.0524 14.2552 11.3546C14.0323 11.6567 13.576 11.741 13.2363 11.5431C13.2363 11.5431 12.3672 11.0861 11.8376 10.7775C11.5949 10.636 11.3143 10.4827 11.0156 10.3257C10.3207 10.7415 9.48756 10.9851 8.59191 10.9851C8.59191 10.9851 5.36266 10.6335 5.45507 9.1614C5.45507 9.1614 6.23684 9.69302 8.53661 9.69302C8.90259 9.69302 9.22431 9.64745 9.50657 9.56737C8.51047 9.08416 7.6657 8.70115 7.6657 8.70115C7.32566 8.50309 6.44143 7.49888 6.66427 7.19663C6.8872 6.89453 8.23494 7.23603 8.57471 7.43402C8.57471 7.43402 9.0473 8.011 9.71424 8.36375C10.0089 8.51959 10.3416 8.68447 10.6883 8.84978ZM9.056 6.66135L8.36174 7.07251L8.58358 6.36829L8.07392 5.91843L8.76403 5.89411L9.056 5.19774L9.34797 5.89411H10.0369L9.52842 6.36829L9.78308 7.03094L9.056 6.66135Z" fill="#FFEA42"/>
</g>
</g>
</g>
</g>
</g>
</g>
<defs>
<filter id="filter0_d_8819_69473" x="5.45312" y="3.12598" width="8.92188" height="8.52441" filterUnits="userSpaceOnUse" color-interpolation-filters="sRGB">
<feFlood flood-opacity="0" result="BackgroundImageFix"/>
<feColorMatrix in="SourceAlpha" type="matrix" values="0 0 0 0 0 0 0 0 0 0 0 0 0 0 0 0 0 0 127 0" result="hardAlpha"/>
<feOffset/>
<feColorMatrix type="matrix" values="0 0 0 0 0 0 0 0 0 0 0 0 0 0 0 0 0 0 0.2 0"/>
<feBlend mode="normal" in2="BackgroundImageFix" result="effect1_dropShadow_8819_69473"/>
<feBlend mode="normal" in="SourceGraphic" in2="effect1_dropShadow_8819_69473" result="shape"/>
</filter>
</defs>
</svg>
