<svg width="17" height="20" viewBox="0 0 17 20" fill="none" xmlns="http://www.w3.org/2000/svg">
<g id="Group">
<g id="Group_2">
<g id="Group_3">
<path id="Vector" d="M7.57402 18.5947L2.82932 13.2502C0.306819 10.3078 0.426938 5.9241 3.18967 3.1618C6.07253 0.279399 10.7572 0.279399 13.64 3.1618C16.4028 5.9241 16.5229 10.3078 14.0004 13.2502L9.31574 18.5947C8.83527 19.1351 7.99443 19.1351 7.57402 18.5947Z" stroke="#1F3C66" stroke-width="1.2011" stroke-miterlimit="10" stroke-linecap="round" stroke-linejoin="round"/>
</g>
</g>
<g id="Group_4">
<path id="Vector_2" d="M11.0514 12.41C10.3307 12.3499 9.30964 12.1698 8.28863 11.3891C7.50786 10.7886 6.8472 10.1281 6.8472 10.1281C6.8472 10.1281 6.24661 9.52757 5.58595 8.68687C4.86524 7.72607 4.68506 6.70522 4.625 5.98462C4.625 5.50422 4.80518 5.02381 5.22559 4.78361L5.82619 4.36326C5.94631 4.30321 6.06643 4.24316 6.18655 4.24316C6.42678 4.24316 6.60696 4.36326 6.72708 4.54341L7.50786 5.74441C7.68803 5.98462 7.62797 6.34492 7.4478 6.58512L7.08744 6.94542C6.96732 7.06552 6.90726 7.30572 7.02738 7.48587C7.38774 8.02632 7.86821 8.56677 8.16851 8.86702C8.46881 9.16727 9.00934 9.64767 9.54988 10.008C9.60994 10.068 9.67 10.068 9.79012 10.068C9.91023 10.068 10.0304 10.008 10.0904 9.94792L10.4508 9.58762C10.5709 9.46752 10.7511 9.40747 10.9312 9.40747C11.0514 9.40747 11.1715 9.46752 11.2916 9.52757L12.4928 10.3082C12.6129 10.4283 12.733 10.5484 12.7931 10.7286C12.8532 10.9087 12.7931 11.0889 12.673 11.209L12.2526 11.8095C12.0123 12.1698 11.5919 12.41 11.0514 12.41Z" fill="#FF5C34"/>
</g>
</g>
</svg>
