<svg width="20" height="22" viewBox="0 0 20 22" fill="none" xmlns="http://www.w3.org/2000/svg">
<g id="Group">
<g id="Group_2">
<path id="Vector" d="M10.2557 18.3946L5.01933 12.4382C2.59751 9.6891 2.72842 5.56546 5.34661 3.01273C8.03024 0.32909 12.4157 0.32909 15.1648 3.01273C17.7175 5.56546 17.8484 9.75455 15.4921 12.4382L10.2557 18.3946Z" stroke="#1F3C66" stroke-width="1.30909" stroke-miterlimit="10" stroke-linecap="round" stroke-linejoin="round"/>
<path id="Vector_2" d="M10.1887 10.8676C11.9239 10.8676 13.3305 9.46099 13.3305 7.72581C13.3305 5.99063 11.9239 4.58398 10.1887 4.58398C8.45352 4.58398 7.04688 5.99063 7.04688 7.72581C7.04688 9.46099 8.45352 10.8676 10.1887 10.8676Z" stroke="#FF5C34" stroke-width="1.30909" stroke-miterlimit="10" stroke-linecap="round" stroke-linejoin="round"/>
</g>
<path id="Vector_3" d="M16.4051 16.5615C17.9105 17.0197 18.8269 17.5433 18.8269 18.1979C18.8269 18.8524 17.9105 19.4415 16.4051 19.8343C15.5542 20.0961 14.5069 20.2924 13.3287 20.4233C12.3469 20.5543 11.2996 20.5543 10.1869 20.5543C9.07415 20.5543 8.02688 20.4888 7.04506 20.4233C5.86688 20.2924 4.8196 20.0961 3.96869 19.8343C2.46324 19.3761 1.54688 18.8524 1.54688 18.1979C1.54688 17.5433 2.46324 16.9543 3.96869 16.5615" stroke="#1F3C66" stroke-width="1.30909" stroke-miterlimit="10" stroke-linecap="round" stroke-linejoin="round"/>
</g>
</svg>
