<svg width="7" height="11" viewBox="0 0 7 11" fill="none" xmlns="http://www.w3.org/2000/svg">
<path id="Vector" d="M6.8446 5.65355C6.84362 5.89166 6.75029 6.11965 6.58508 6.28752L2.18636 10.7838C2.01806 10.9311 1.80158 11.0081 1.58017 10.9993C1.35875 10.9906 1.14872 10.8968 0.992047 10.7366C0.835369 10.5765 0.743583 10.3618 0.735031 10.1355C0.726479 9.90914 0.80179 9.68785 0.945916 9.51583L4.72002 5.65355L0.945915 1.79127C0.80179 1.61924 0.726479 1.39796 0.735031 1.17164C0.743583 0.945321 0.835369 0.730635 0.992046 0.570483C1.14872 0.410332 1.35875 0.31651 1.58016 0.307769C1.80158 0.299026 2.01806 0.376008 2.18636 0.52333L6.58508 5.01958C6.75029 5.18745 6.84362 5.41544 6.8446 5.65355Z" fill="#1F3C66"/>
</svg>
